<?xml version="1.0" standalone="no"?><!DOCTYPE svg PUBLIC "-//W3C//DTD SVG 1.1//EN" "http://www.w3.org/Graphics/SVG/1.1/DTD/svg11.dtd"><svg t="1650503670037" class="icon" viewBox="0 0 1024 1024" version="1.1" xmlns="http://www.w3.org/2000/svg" p-id="815" xmlns:xlink="http://www.w3.org/1999/xlink" width="200" height="200"><defs><style type="text/css">@font-face { font-family: feedback-iconfont; src: url("//at.alicdn.com/t/font_1031158_u69w8yhxdu.woff2?t=1630033759944") format("woff2"), url("//at.alicdn.com/t/font_1031158_u69w8yhxdu.woff?t=1630033759944") format("woff"), url("//at.alicdn.com/t/font_1031158_u69w8yhxdu.ttf?t=1630033759944") format("truetype"); }
</style></defs><path d="M733.86666667 170.66666667h-580.26666667A85.43573333 85.43573333 0 0 0 68.26666667 256v648.53333333C68.26666667 951.6032 106.56426667 989.86666667 153.6 989.86666667h580.26666667c47.06986667 0 85.33333333-38.26346667 85.33333333-85.33333334v-648.53333333C819.2 208.96426667 780.93653333 170.66666667 733.86666667 170.66666667z m17.06666666 733.86666666c0 9.38666667-7.68 17.06666667-17.06666666 17.06666667h-580.26666667a17.06666667 17.06666667 0 0 1-17.06666667-17.06666667v-648.53333333a17.06666667 17.06666667 0 0 1 17.06666667-17.06666667h580.26666667a17.06666667 17.06666667 0 0 1 17.06666666 17.06666667v648.53333333z" p-id="816"></path><path d="M870.4 34.13333333h-580.26666667a34.13333333 34.13333333 0 0 0 0 68.26666667h580.26666667a17.06666667 17.06666667 0 0 1 17.06666667 17.06666667v648.53333333a34.13333333 34.13333333 0 1 0 68.26666666 0v-648.53333333C955.73333333 72.43093333 917.46986667 34.13333333 870.4 34.13333333z" p-id="817"></path><path d="M614.4 349.86666667H273.06666667a34.13333333 34.13333333 0 0 0 0 68.26666666h341.33333333a34.13333333 34.13333333 0 1 0 0-68.26666666zM614.4 520.53333333H273.06666667a34.13333333 34.13333333 0 1 0 0 68.26666667h341.33333333a34.13333333 34.13333333 0 1 0 0-68.26666667zM477.86666667 689.7664H273.06666667a34.13333333 34.13333333 0 1 0 0 68.26666667h204.8a34.13333333 34.13333333 0 1 0 0-68.26666667z" p-id="818"></path></svg>