<?xml version="1.0" standalone="no"?><!DOCTYPE svg PUBLIC "-//W3C//DTD SVG 1.1//EN" "http://www.w3.org/Graphics/SVG/1.1/DTD/svg11.dtd"><svg t="1653443948182" class="icon" viewBox="0 0 1024 1024" version="1.1" xmlns="http://www.w3.org/2000/svg" p-id="1049" xmlns:xlink="http://www.w3.org/1999/xlink" width="200" height="200"><defs><style type="text/css">@font-face { font-family: feedback-iconfont; src: url("//at.alicdn.com/t/font_1031158_u69w8yhxdu.woff2?t=1630033759944") format("woff2"), url("//at.alicdn.com/t/font_1031158_u69w8yhxdu.woff?t=1630033759944") format("woff"), url("//at.alicdn.com/t/font_1031158_u69w8yhxdu.ttf?t=1630033759944") format("truetype"); }
</style></defs><path d="M809.52888889 607.00444445c-37.43288889 0-68.15288889-32.31288889-68.15288889-71.68 0-39.48088889 30.60622222-71.68 68.15288889-71.68H1022.86222222v-59.61955556c0-38.45688889-29.80977778-69.85955555-66.33244444-69.85955556H214.016c-36.52266667 0-66.33244445 31.40266667-66.33244445 69.85955556v482.41777778c0 38.45688889 29.80977778 69.85955555 66.33244445 69.85955555h742.51377778c36.52266667 0 66.33244445-31.40266667 66.33244444-69.85955555V607.00444445H809.52888889z" p-id="1050"></path><path d="M810.89422222 535.32444445m-46.64888889 0a46.64888889 46.64888889 0 1 0 93.29777778 0 46.64888889 46.64888889 0 1 0-93.29777778 0Z" p-id="1051"></path><path d="M106.26844445 362.72355555c0-38.45688889 31.40266667-69.85955555 69.85955555-69.85955555h719.64444445l-60.30222223-176.01422222c-12.40177778-36.29511111-52.33777778-55.86488889-88.74666667-43.46311111L50.63111111 312.09244445c-36.29511111 12.40177778-55.86488889 52.33777778-43.46311111 88.74666666l99.10044445 289.10933334V362.72355555z" p-id="1052"></path></svg>