<?xml version="1.0" standalone="no"?><!DOCTYPE svg PUBLIC "-//W3C//DTD SVG 1.1//EN" "http://www.w3.org/Graphics/SVG/1.1/DTD/svg11.dtd"><svg t="1654155381633" class="icon" viewBox="0 0 1024 1024" version="1.1" xmlns="http://www.w3.org/2000/svg" p-id="2094" xmlns:xlink="http://www.w3.org/1999/xlink" width="200" height="200"><defs><style type="text/css">@font-face { font-family: feedback-iconfont; src: url("//at.alicdn.com/t/font_1031158_u69w8yhxdu.woff2?t=1630033759944") format("woff2"), url("//at.alicdn.com/t/font_1031158_u69w8yhxdu.woff?t=1630033759944") format("woff"), url("//at.alicdn.com/t/font_1031158_u69w8yhxdu.ttf?t=1630033759944") format("truetype"); }
</style></defs><path d="M2.27555555 111.50222222m109.22666667 0l764.58666667 0q109.22666667 0 109.22666666 109.22666667l0 546.13333333q0 109.22666667-109.22666666 109.22666667l-764.58666667 0q-109.22666667 0-109.22666667-109.22666667l0-546.13333333q0-109.22666667 109.22666667-109.22666667Z" fill="#E4BB3C" p-id="2095"></path><path d="M2.27555555 238.93333333h983.04v109.22666667H2.27555555z" fill="#FFFFFF" p-id="2096"></path><path d="M821.47555555 712.24888889m-200.24888888 0a200.24888889 200.24888889 0 1 0 400.49777778 0 200.24888889 200.24888889 0 1 0-400.49777778 0Z" fill="#E4BB3C" p-id="2097"></path><path d="M348.16 512H202.52444445a54.61333333 54.61333333 0 0 0-54.61333334 54.61333333v18.20444445h254.86222222V566.61333333a54.61333333 54.61333333 0 0 0-54.61333333-54.61333333zM147.91111111 675.84a54.61333333 54.61333333 0 0 0 54.61333334 54.61333333h145.63555555a54.61333333 54.61333333 0 0 0 54.61333333-54.61333333V612.12444445H147.91111111z" fill="#FFFFFF" p-id="2098"></path><path d="M857.88444445 666.73777778h-79.64444445l26.28266667-26.16888889a27.30666667 27.30666667 0 1 0-38.68444445-38.68444444l-72.81777777 72.81777777a27.53422222 27.53422222 0 0 0 0 38.68444445l72.81777777 72.81777778a27.30666667 27.30666667 0 0 0 38.68444445-38.68444445l-26.28266667-26.16888889h79.64444445a45.51111111 45.51111111 0 0 1 45.5111111 45.51111111v36.40888889a27.30666667 27.30666667 0 1 0 54.61333334 0v-36.40888889a100.23822222 100.23822222 0 0 0-100.12444444-100.12444444z" fill="#FFFFFF" p-id="2099"></path></svg>