<?xml version="1.0" standalone="no"?><!DOCTYPE svg PUBLIC "-//W3C//DTD SVG 1.1//EN" "http://www.w3.org/Graphics/SVG/1.1/DTD/svg11.dtd"><svg t="1653443938040" class="icon" viewBox="0 0 1024 1024" version="1.1" xmlns="http://www.w3.org/2000/svg" p-id="908" xmlns:xlink="http://www.w3.org/1999/xlink" width="200" height="200"><defs><style type="text/css">@font-face { font-family: feedback-iconfont; src: url("//at.alicdn.com/t/font_1031158_u69w8yhxdu.woff2?t=1630033759944") format("woff2"), url("//at.alicdn.com/t/font_1031158_u69w8yhxdu.woff?t=1630033759944") format("woff"), url("//at.alicdn.com/t/font_1031158_u69w8yhxdu.ttf?t=1630033759944") format("truetype"); }
</style></defs><path d="M253.475 335.5334375c0 22.5046875 18.1125 40.6171875 40.6171875 40.6171875s40.618125-18.1125 40.618125-40.6171875c0-22.5046875-18.1134375-40.6171875-40.618125-40.6171875-22.50375 0-40.6171875 18.1125-40.6171875 40.6171875z m315.06 209.1253125c0 17.5640625 14.2715625 31.835625 31.835625 31.835625s31.835625-14.2715625 31.835625-31.835625-14.2715625-31.835625-31.835625-31.835625-31.835625 14.2715625-31.835625 31.835625zM459.85625 335.5334375c0 22.5046875 18.1125 40.6171875 40.6171875 40.6171875 22.5046875 0 40.6171875-18.1125 40.6171875-40.6171875 0-22.5046875-18.1125-40.6171875-40.6171875-40.6171875-22.5046875 0-40.6171875 18.1125-40.6171875 40.6171875z" fill="" p-id="909"></path><path d="M836.3909375 32H187.6090625C101.9825 32 32.2746875 101.70875 32.2746875 187.88375v647.6840625c0 86.175 69.7078125 155.88375 155.334375 155.88375h648.781875c85.6265625 0 155.334375-69.70875 155.334375-155.88375V187.88375C991.7253125 102.25625 922.0175 32 836.3909375 32zM392.343125 675.29375c-36.226875 0-65.3175-7.6846875-102.0928125-14.82L188.706875 711.51875l29.090625-87.271875C144.79625 573.2 101.4340625 507.333125 101.4340625 427.745c0-138.31875 131.1834375-247.546875 290.9090625-247.546875 143.259375 0 268.404375 87.271875 293.653125 204.185625a239.3821875 239.3821875 0 0 0-27.9928125-1.6471875c-138.31875 0-247.546875 103.190625-247.546875 229.9828125 0 21.406875 3.2934375 41.715 8.7815625 60.92625-8.7815625 1.0978125-17.5640625 1.6471875-26.895 1.6471875z m429.2278125 101.5434375l21.95625 72.4528125-79.5890625-43.910625c-29.090625 7.134375-58.18125 14.82-87.271875 14.82-138.3196875 0-247.5478125-94.4090625-247.5478125-211.321875 0-116.3625 109.228125-211.32 247.546875-211.32 130.635 0 246.9984375 94.9575 246.9984375 211.3209375-0.5484375 66.4153125-43.910625 124.5965625-102.0928125 167.95875z" fill="" p-id="910"></path><path d="M727.1628125 544.65875c0 17.5640625 14.2715625 31.835625 31.835625 31.835625s31.835625-14.2715625 31.835625-31.835625-14.2715625-31.835625-31.835625-31.835625c-18.1125 0-31.835625 14.2715625-31.835625 31.835625z" fill="" p-id="911"></path></svg>